<svg xmlns="http://www.w3.org/2000/svg" width="200" height="50" viewBox="0 0 200 50"><g transform="translate(3799 1075)"><rect width="200" height="50" transform="translate(-3799 -1075)" fill="none"/><g transform="translate(-3790 -1070)"><g transform="translate(0 0.036)"><path d="M13.02,40.249a10.317,10.317,0,0,1-2.2.38,10.185,10.185,0,0,1-8.28-16.9l9.354-10.717a2.248,2.248,0,0,1,3.389,2.955L5.922,26.692a5.7,5.7,0,0,0,.5,8.039,5.69,5.69,0,0,0,8.033-.507L23,24.527A2.248,2.248,0,0,1,26.373,27.5l-8.546,9.7a10.114,10.114,0,0,1-4.8,3.052Z" transform="translate(0.001 -7.761)" fill="#202b46"/><path d="M27.384,46.411a2.25,2.25,0,0,1-2.316-3.643l9.264-10.56A5.689,5.689,0,1,0,25.8,24.682l-8.546,9.7a2.248,2.248,0,1,1-3.371-2.973l8.546-9.7A10.189,10.189,0,0,1,37.715,35.181l-9.257,10.56a2.23,2.23,0,0,1-1.067.675Z" transform="translate(-5.286 -9.616)" fill="#c140a9"/><circle cx="2.286" cy="2.286" r="2.286" transform="translate(14.861 36.584)" fill="#c140a9"/><circle cx="2.286" cy="2.286" r="2.286" transform="translate(15.422)" fill="#202b46"/></g><g transform="translate(51.558 0)"><path d="M83.191,38.287A.968.968,0,0,1,82.449,38a1.015,1.015,0,0,1-.259-.724V8.657a1.035,1.035,0,0,1,.259-.724.968.968,0,0,1,.742-.283h2.322A.97.97,0,0,1,86.52,8.657V34.476h14.529a.978.978,0,0,1,1.049,1.049v1.749a1,1,0,0,1-.283.724,1.019,1.019,0,0,1-.766.283H83.2Z" transform="translate(-82.19 -5.901)" fill="#202b46"/><path d="M123.087,43.471a1,1,0,0,1-.724-.283.959.959,0,0,1-.283-.724V21.717a1,1,0,0,1,.283-.724.959.959,0,0,1,.724-.283h2.1a.97.97,0,0,1,1.007,1.007V42.464a1,1,0,0,1-.283.724.959.959,0,0,1-.724.283h-2.1Z" transform="translate(-98.023 -10.8)" fill="#202b46"/><path d="M141.3,44.087a.981.981,0,0,1-.724-.295,1.017,1.017,0,0,1-.283-.752V21.484a1.062,1.062,0,0,1,.283-.752.94.94,0,0,1,.724-.295h2.057a.981.981,0,0,1,.724.295,1.052,1.052,0,0,1,.283.752v2a9.082,9.082,0,0,1,2.865-2.525,10.073,10.073,0,0,1,9.276.32,8.177,8.177,0,0,1,3.021,3.591,12.941,12.941,0,0,1,1.031,5.345V43.034a1.062,1.062,0,0,1-.283.752.94.94,0,0,1-.724.295h-2.189a.981.981,0,0,1-.724-.295,1.017,1.017,0,0,1-.283-.752v-12.6a7.58,7.58,0,0,0-1.49-4.982,5.362,5.362,0,0,0-4.378-1.8,5.614,5.614,0,0,0-4.354,1.8,7.121,7.121,0,0,0-1.64,4.982v12.6a1.062,1.062,0,0,1-.283.752.94.94,0,0,1-.724.295h-2.189Z" transform="translate(-105.25 -10.992)" fill="#202b46"/><path d="M185.347,38a1,1,0,0,1-.724-.283.959.959,0,0,1-.283-.724V7.937a1,1,0,0,1,.283-.724.959.959,0,0,1,.724-.283H187.4a.97.97,0,0,1,1.007,1.007V23.165l8.618-7.177a5.909,5.909,0,0,1,.808-.591,2.1,2.1,0,0,1,.941-.151H201.1a.9.9,0,0,1,.657.265.872.872,0,0,1,.157,1.049,1.325,1.325,0,0,1-.416.44L191.39,25.4,202.6,36.3a1.159,1.159,0,0,1,.525.79.9.9,0,0,1-.265.657.891.891,0,0,1-.657.265h-2.274a2.274,2.274,0,0,1-.965-.151,4.1,4.1,0,0,1-.79-.591l-9.758-9.318v9.058a1,1,0,0,1-.283.724.959.959,0,0,1-.724.283h-2.057Z" transform="translate(-122.734 -5.615)" fill="#202b46"/><path d="M222.717,43.471a1,1,0,0,1-.724-.283.959.959,0,0,1-.283-.724V21.717a1,1,0,0,1,.283-.724.959.959,0,0,1,.724-.283h2.1a.97.97,0,0,1,1.007,1.007V42.464a1,1,0,0,1-.283.724.959.959,0,0,1-.724.283Z" transform="translate(-137.566 -10.8)" fill="#202b46"/><path d="M240.935,37.136a1,1,0,0,1-.724-.283.959.959,0,0,1-.283-.724V17.879h-3.721a1,1,0,0,1-.724-.283.959.959,0,0,1-.283-.724v-1.49a1,1,0,0,1,.283-.724.982.982,0,0,1,.724-.283h3.721V12.186a9.622,9.622,0,0,1,.742-3.914,5.439,5.439,0,0,1,2.388-2.605,8.96,8.96,0,0,1,4.4-.917h2.623a1,1,0,0,1,.724.283.982.982,0,0,1,.283.724v1.49a1,1,0,0,1-.283.724.968.968,0,0,1-.724.283h-2.539a3.177,3.177,0,0,0-2.8,1.074A5.4,5.4,0,0,0,244,12.409v1.972h5.645a.97.97,0,0,1,1.007,1.007v1.49a1,1,0,0,1-.283.724.959.959,0,0,1-.724.283H244v18.25a1,1,0,0,1-.283.724.959.959,0,0,1-.724.283h-2.057Z" transform="translate(-142.921 -4.75)" fill="#202b46"/><path d="M269.948,51.781a.863.863,0,0,1-.615-.259.836.836,0,0,1-.265-.615,1.386,1.386,0,0,1,.042-.35,2.618,2.618,0,0,1,.175-.44l3.371-8.009L264.3,22.375a2.336,2.336,0,0,1-.217-.742.9.9,0,0,1,.265-.657A.891.891,0,0,1,265,20.71h2.147a1.059,1.059,0,0,1,.724.217,1.048,1.048,0,0,1,.326.525l6.652,15.928,6.827-15.928a1.49,1.49,0,0,1,.374-.525,1.049,1.049,0,0,1,.724-.217h2.057a.891.891,0,0,1,.657.265.845.845,0,0,1,.265.615,2.742,2.742,0,0,1-.217.79l-12.43,28.665a1.491,1.491,0,0,1-.374.525,1.048,1.048,0,0,1-.724.217h-2.057Z" transform="translate(-154.383 -10.554)" fill="#202b46"/><circle cx="2.286" cy="2.286" r="2.286" transform="translate(23.774 0.73)" fill="#202b46"/><circle cx="2.286" cy="2.286" r="2.286" transform="translate(83.951 0.73)" fill="#c140a9"/></g><g transform="translate(51.739 36.324)"><path d="M84.155,69.059a.129.129,0,0,1-.109-.042A.173.173,0,0,1,84,68.908V64.65H82.641a.129.129,0,0,1-.109-.042.145.145,0,0,1-.042-.109v-.1a.142.142,0,0,1,.042-.115.173.173,0,0,1,.109-.042h3.154a.142.142,0,0,1,.115.042.15.15,0,0,1,.042.115v.1a.129.129,0,0,1-.042.109.177.177,0,0,1-.115.042H84.438v4.258a.129.129,0,0,1-.042.109.142.142,0,0,1-.115.042Z" transform="translate(-82.49 -64.156)" fill="#202b46"/><path d="M90.911,69.055a.129.129,0,0,1-.109-.042.145.145,0,0,1-.042-.109V64.387a.142.142,0,0,1,.042-.115.137.137,0,0,1,.109-.042h1.6a1.813,1.813,0,0,1,1.158.344,1.253,1.253,0,0,1,.428,1.049,1.306,1.306,0,0,1-.277.881,1.358,1.358,0,0,1-.766.446l1.11,1.888a.38.38,0,0,1,.018.078.145.145,0,0,1-.139.139h-.084a.2.2,0,0,1-.163-.06c-.036-.042-.066-.084-.1-.127l-1.1-1.858H91.188V68.9a.129.129,0,0,1-.042.109.142.142,0,0,1-.115.042H90.9Zm.283-2.455h1.291a1.337,1.337,0,0,0,.893-.247.915.915,0,0,0,.3-.736.9.9,0,0,0-.3-.736,1.371,1.371,0,0,0-.893-.247H91.194v1.96Z" transform="translate(-85.772 -64.152)" fill="#202b46"/><path d="M98.559,69.051a.145.145,0,0,1-.139-.139.192.192,0,0,1,.012-.078l1.743-4.475a.224.224,0,0,1,.072-.1.2.2,0,0,1,.127-.036h.235a.2.2,0,0,1,.127.036.262.262,0,0,1,.072.1l1.743,4.475a.543.543,0,0,1,.012.078.145.145,0,0,1-.139.139h-.139a.133.133,0,0,1-.1-.036.2.2,0,0,1-.048-.066l-.428-1.1H99.264l-.428,1.1a.252.252,0,0,1-.042.066.147.147,0,0,1-.109.036h-.139Zm.881-1.622h2.111l-1.055-2.714Z" transform="translate(-88.813 -64.148)" fill="#202b46"/><path d="M107.941,69.055a.129.129,0,0,1-.109-.042.145.145,0,0,1-.042-.109V64.387a.142.142,0,0,1,.042-.115.137.137,0,0,1,.109-.042h.145a.133.133,0,0,1,.1.036.228.228,0,0,1,.042.048l2.545,3.89V64.393a.142.142,0,0,1,.042-.115.173.173,0,0,1,.109-.042h.127a.142.142,0,0,1,.115.042.177.177,0,0,1,.042.115V68.9a.15.15,0,0,1-.042.115.145.145,0,0,1-.109.042h-.151a.133.133,0,0,1-.1-.036c-.018-.024-.036-.036-.042-.048L108.224,65.1V68.91a.129.129,0,0,1-.042.109.142.142,0,0,1-.115.042h-.127Z" transform="translate(-92.532 -64.152)" fill="#202b46"/><path d="M117.987,69.069a2.228,2.228,0,0,1-.947-.181,1.475,1.475,0,0,1-.6-.464,1.089,1.089,0,0,1-.223-.6.128.128,0,0,1,.042-.1.132.132,0,0,1,.1-.042h.139a.137.137,0,0,1,.109.042.128.128,0,0,1,.042.1.829.829,0,0,0,.175.38,1.155,1.155,0,0,0,.428.32,1.8,1.8,0,0,0,.73.127,1.578,1.578,0,0,0,.983-.247.793.793,0,0,0,.308-.657.626.626,0,0,0-.163-.446,1.392,1.392,0,0,0-.495-.3c-.223-.09-.5-.187-.85-.3a5.194,5.194,0,0,1-.808-.326,1.159,1.159,0,0,1-.464-.41,1.2,1.2,0,0,1-.151-.621,1.1,1.1,0,0,1,.187-.633,1.3,1.3,0,0,1,.543-.446,2.057,2.057,0,0,1,.862-.163,2.127,2.127,0,0,1,.712.109,1.361,1.361,0,0,1,.5.3,1.291,1.291,0,0,1,.3.392,1.066,1.066,0,0,1,.109.41.145.145,0,0,1-.036.09.129.129,0,0,1-.109.042h-.139a.357.357,0,0,1-.084-.03.143.143,0,0,1-.066-.109.8.8,0,0,0-.362-.567,1.4,1.4,0,0,0-.832-.223,1.546,1.546,0,0,0-.832.2.772.772,0,0,0-.181,1.08,1.1,1.1,0,0,0,.452.308c.205.084.47.187.8.3a6.749,6.749,0,0,1,.856.332,1.275,1.275,0,0,1,.5.4,1.06,1.06,0,0,1,.163.615,1.2,1.2,0,0,1-.211.712,1.305,1.305,0,0,1-.6.446,2.5,2.5,0,0,1-.923.157Z" transform="translate(-95.878 -64.1)" fill="#202b46"/><path d="M124.961,69.055a.129.129,0,0,1-.109-.042.145.145,0,0,1-.042-.109V64.387a.142.142,0,0,1,.042-.115.137.137,0,0,1,.109-.042h2.66a.142.142,0,0,1,.115.042.177.177,0,0,1,.042.115v.1a.129.129,0,0,1-.042.109.177.177,0,0,1-.115.042h-2.376v1.851h2.237a.146.146,0,0,1,.157.157v.1a.129.129,0,0,1-.042.109.177.177,0,0,1-.115.042h-2.237v1.99A.129.129,0,0,1,125.2,69a.142.142,0,0,1-.115.042h-.127Z" transform="translate(-99.287 -64.152)" fill="#202b46"/><path d="M132.621,69.055a.129.129,0,0,1-.109-.042.145.145,0,0,1-.042-.109V64.387a.142.142,0,0,1,.042-.115.137.137,0,0,1,.109-.042h2.69a.142.142,0,0,1,.115.042.177.177,0,0,1,.042.115v.1a.129.129,0,0,1-.042.109.177.177,0,0,1-.115.042H132.9V66.4h2.256a.142.142,0,0,1,.115.042.177.177,0,0,1,.042.115v.1a.129.129,0,0,1-.042.109.177.177,0,0,1-.115.042H132.9v1.827h2.461a.142.142,0,0,1,.115.042.15.15,0,0,1,.042.115v.1a.129.129,0,0,1-.042.109.142.142,0,0,1-.115.042h-2.744Z" transform="translate(-102.327 -64.152)" fill="#202b46"/><path d="M140.531,69.055a.129.129,0,0,1-.109-.042.145.145,0,0,1-.042-.109V64.387a.142.142,0,0,1,.042-.115.137.137,0,0,1,.109-.042h1.6a1.813,1.813,0,0,1,1.158.344,1.253,1.253,0,0,1,.428,1.049,1.306,1.306,0,0,1-.277.881,1.358,1.358,0,0,1-.766.446l1.11,1.888a.379.379,0,0,1,.018.078.145.145,0,0,1-.139.139h-.084a.2.2,0,0,1-.163-.06c-.036-.042-.066-.084-.1-.127l-1.1-1.858h-1.417V68.9a.129.129,0,0,1-.042.109.142.142,0,0,1-.115.042h-.127Zm.283-2.455H142.1a1.337,1.337,0,0,0,.893-.247.915.915,0,0,0,.3-.736.9.9,0,0,0-.3-.736,1.371,1.371,0,0,0-.893-.247h-1.291v1.96Z" transform="translate(-105.467 -64.152)" fill="#202b46"/><path d="M148.991,69.055a.129.129,0,0,1-.109-.042.145.145,0,0,1-.042-.109V64.387a.142.142,0,0,1,.042-.115.137.137,0,0,1,.109-.042h2.69a.142.142,0,0,1,.115.042.177.177,0,0,1,.042.115v.1a.129.129,0,0,1-.042.109.177.177,0,0,1-.115.042h-2.406V66.4h2.256a.142.142,0,0,1,.115.042.177.177,0,0,1,.042.115v.1a.129.129,0,0,1-.042.109.177.177,0,0,1-.115.042h-2.256v1.827h2.461a.142.142,0,0,1,.115.042.15.15,0,0,1,.042.115v.1a.129.129,0,0,1-.042.109.142.142,0,0,1-.115.042h-2.744Z" transform="translate(-108.825 -64.152)" fill="#202b46"/><path d="M156.9,69.055a.129.129,0,0,1-.109-.042.145.145,0,0,1-.042-.109V64.387a.142.142,0,0,1,.042-.115.137.137,0,0,1,.109-.042h.145a.133.133,0,0,1,.1.036.23.23,0,0,1,.042.048l2.545,3.89V64.393a.142.142,0,0,1,.042-.115.173.173,0,0,1,.109-.042h.127a.142.142,0,0,1,.115.042.177.177,0,0,1,.042.115V68.9a.15.15,0,0,1-.042.115.145.145,0,0,1-.109.042h-.151a.133.133,0,0,1-.1-.036c-.018-.024-.036-.036-.042-.048L157.184,65.1V68.91a.129.129,0,0,1-.042.109.142.142,0,0,1-.115.042H156.9Z" transform="translate(-111.964 -64.152)" fill="#202b46"/><path d="M167.213,69.073a1.885,1.885,0,0,1-1.025-.247,1.568,1.568,0,0,1-.591-.663,2.491,2.491,0,0,1-.211-.959c0-.187-.006-.392-.006-.609s0-.422.006-.621a2.516,2.516,0,0,1,.211-.959,1.436,1.436,0,0,1,.591-.663,1.984,1.984,0,0,1,1.025-.241,2.266,2.266,0,0,1,.832.139,1.557,1.557,0,0,1,.887.844,1.626,1.626,0,0,1,.121.507.127.127,0,0,1-.036.1.168.168,0,0,1-.109.036h-.139a.182.182,0,0,1-.1-.03.148.148,0,0,1-.054-.115,1.22,1.22,0,0,0-.495-.838,1.685,1.685,0,0,0-.911-.229,1.386,1.386,0,0,0-1,.356,1.59,1.59,0,0,0-.4,1.134q-.018.561,0,1.158a1.589,1.589,0,0,0,.4,1.134,1.386,1.386,0,0,0,1,.356,1.671,1.671,0,0,0,.911-.229,1.256,1.256,0,0,0,.495-.838.226.226,0,0,1,.054-.115.133.133,0,0,1,.1-.03h.139a.168.168,0,0,1,.109.036.106.106,0,0,1,.036.1,1.626,1.626,0,0,1-.121.507,1.557,1.557,0,0,1-.887.844,2.266,2.266,0,0,1-.832.139Z" transform="translate(-115.39 -64.104)" fill="#202b46"/><path d="M174.451,69.055a.129.129,0,0,1-.109-.042.145.145,0,0,1-.042-.109V64.381a.129.129,0,0,1,.042-.109.137.137,0,0,1,.109-.042h.133a.129.129,0,0,1,.109.042.145.145,0,0,1,.042.109V68.9a.129.129,0,0,1-.042.109.137.137,0,0,1-.109.042Z" transform="translate(-118.93 -64.152)" fill="#202b46"/><path d="M177.649,69.051a.145.145,0,0,1-.139-.139.192.192,0,0,1,.012-.078l1.743-4.475a.224.224,0,0,1,.072-.1.2.2,0,0,1,.127-.036h.235a.2.2,0,0,1,.127.036.262.262,0,0,1,.072.1l1.743,4.475a.543.543,0,0,1,.012.078.145.145,0,0,1-.139.139h-.139a.133.133,0,0,1-.1-.036.2.2,0,0,1-.048-.066l-.428-1.1h-2.443l-.428,1.1a.252.252,0,0,1-.042.066.148.148,0,0,1-.109.036h-.139Zm.881-1.622h2.111l-1.055-2.714Z" transform="translate(-120.204 -64.148)" fill="#202b46"/><path d="M188.007,69.069a2.228,2.228,0,0,1-.947-.181,1.475,1.475,0,0,1-.6-.464,1.089,1.089,0,0,1-.223-.6.128.128,0,0,1,.042-.1.132.132,0,0,1,.1-.042h.139a.137.137,0,0,1,.109.042.129.129,0,0,1,.042.1.829.829,0,0,0,.175.38,1.155,1.155,0,0,0,.428.32,1.8,1.8,0,0,0,.73.127,1.578,1.578,0,0,0,.983-.247.793.793,0,0,0,.308-.657.626.626,0,0,0-.163-.446,1.392,1.392,0,0,0-.495-.3c-.223-.09-.5-.187-.85-.3a5.193,5.193,0,0,1-.808-.326,1.158,1.158,0,0,1-.464-.41,1.2,1.2,0,0,1-.151-.621,1.1,1.1,0,0,1,.187-.633,1.3,1.3,0,0,1,.543-.446,2.057,2.057,0,0,1,.862-.163,2.127,2.127,0,0,1,.712.109,1.362,1.362,0,0,1,.5.3,1.292,1.292,0,0,1,.3.392,1.065,1.065,0,0,1,.109.41.145.145,0,0,1-.036.09.129.129,0,0,1-.109.042H189.3a.357.357,0,0,1-.084-.03.143.143,0,0,1-.066-.109.8.8,0,0,0-.362-.567,1.4,1.4,0,0,0-.832-.223,1.546,1.546,0,0,0-.832.2.772.772,0,0,0-.181,1.08,1.1,1.1,0,0,0,.452.308c.205.084.47.187.8.3a6.752,6.752,0,0,1,.856.332,1.274,1.274,0,0,1,.5.4,1.06,1.06,0,0,1,.163.615,1.2,1.2,0,0,1-.211.712,1.305,1.305,0,0,1-.6.446,2.5,2.5,0,0,1-.923.157Z" transform="translate(-123.669 -64.1)" fill="#202b46"/><path d="M200.157,69.433a.129.129,0,0,1-.109-.042.174.174,0,0,1-.042-.109V67.774h-1.5a.129.129,0,0,1-.109-.042.145.145,0,0,1-.042-.109v-.1a.129.129,0,0,1,.042-.109.173.173,0,0,1,.109-.042h1.5V65.911a.129.129,0,0,1,.042-.109.173.173,0,0,1,.109-.042h.1a.129.129,0,0,1,.109.042.174.174,0,0,1,.042.109v1.466h1.5a.129.129,0,0,1,.109.042.173.173,0,0,1,.042.109v.1a.129.129,0,0,1-.042.109.173.173,0,0,1-.109.042h-1.5v1.508a.129.129,0,0,1-.042.109.174.174,0,0,1-.109.042Z" transform="translate(-128.479 -64.759)" fill="#202b46"/><path d="M212.567,69.069a2.228,2.228,0,0,1-.947-.181,1.475,1.475,0,0,1-.6-.464,1.089,1.089,0,0,1-.223-.6.128.128,0,0,1,.042-.1.132.132,0,0,1,.1-.042h.139a.137.137,0,0,1,.109.042.128.128,0,0,1,.042.1.83.83,0,0,0,.175.38,1.154,1.154,0,0,0,.428.32,1.8,1.8,0,0,0,.73.127,1.578,1.578,0,0,0,.983-.247.793.793,0,0,0,.308-.657.626.626,0,0,0-.163-.446,1.392,1.392,0,0,0-.495-.3c-.223-.09-.5-.187-.85-.3a5.192,5.192,0,0,1-.808-.326,1.159,1.159,0,0,1-.464-.41,1.2,1.2,0,0,1-.151-.621,1.1,1.1,0,0,1,.187-.633,1.3,1.3,0,0,1,.543-.446,2.057,2.057,0,0,1,.862-.163,2.127,2.127,0,0,1,.712.109,1.361,1.361,0,0,1,.5.3,1.291,1.291,0,0,1,.3.392,1.067,1.067,0,0,1,.109.41.145.145,0,0,1-.036.09.129.129,0,0,1-.109.042h-.139a.357.357,0,0,1-.084-.03.143.143,0,0,1-.066-.109.8.8,0,0,0-.362-.567,1.4,1.4,0,0,0-.832-.223,1.546,1.546,0,0,0-.832.2.772.772,0,0,0-.181,1.08,1.1,1.1,0,0,0,.452.308c.205.084.47.187.8.3a6.749,6.749,0,0,1,.856.332,1.275,1.275,0,0,1,.5.4,1.06,1.06,0,0,1,.163.615,1.2,1.2,0,0,1-.211.712,1.305,1.305,0,0,1-.6.446,2.5,2.5,0,0,1-.923.157Z" transform="translate(-133.417 -64.1)" fill="#202b46"/><path d="M219.541,69.055a.129.129,0,0,1-.109-.042.145.145,0,0,1-.042-.109V64.381a.129.129,0,0,1,.042-.109.137.137,0,0,1,.109-.042h.133a.129.129,0,0,1,.109.042.145.145,0,0,1,.042.109V68.9a.129.129,0,0,1-.042.109.137.137,0,0,1-.109.042Z" transform="translate(-136.826 -64.152)" fill="#202b46"/><path d="M223.557,69.055a.15.15,0,0,1-.115-.042.145.145,0,0,1-.042-.109V64.387a.165.165,0,0,1,.042-.115.15.15,0,0,1,.115-.042h.175a.133.133,0,0,1,.1.036.221.221,0,0,1,.042.054l1.562,3.046,1.574-3.046.042-.054a.124.124,0,0,1,.1-.036h.163a.142.142,0,0,1,.115.042.15.15,0,0,1,.042.115V68.9a.129.129,0,0,1-.042.109.142.142,0,0,1-.115.042h-.127a.129.129,0,0,1-.109-.042.174.174,0,0,1-.042-.109V65.165l-1.315,2.593a.233.233,0,0,1-.078.1.229.229,0,0,1-.133.036h-.151a.229.229,0,0,1-.133-.036.3.3,0,0,1-.084-.1l-1.315-2.593V68.9a.129.129,0,0,1-.042.109.137.137,0,0,1-.109.042Z" transform="translate(-138.418 -64.152)" fill="#202b46"/><path d="M233.611,69.055a.129.129,0,0,1-.109-.042.145.145,0,0,1-.042-.109V64.387a.142.142,0,0,1,.042-.115.137.137,0,0,1,.109-.042h1.677a2,2,0,0,1,.838.163,1.26,1.26,0,0,1,.555.476,1.644,1.644,0,0,1,0,1.568,1.193,1.193,0,0,1-.555.476,2,2,0,0,1-.838.163h-1.393V68.9a.129.129,0,0,1-.042.109.142.142,0,0,1-.115.042h-.127Zm.283-2.388h1.357a1.3,1.3,0,0,0,.893-.259.963.963,0,0,0,.3-.754.943.943,0,0,0-.3-.754,1.3,1.3,0,0,0-.893-.259h-1.357Z" transform="translate(-142.411 -64.152)" fill="#202b46"/><path d="M241.931,69.055a.129.129,0,0,1-.109-.042.145.145,0,0,1-.042-.109V64.381a.129.129,0,0,1,.042-.109.137.137,0,0,1,.109-.042h.133a.129.129,0,0,1,.109.042.145.145,0,0,1,.042.109v4.258h2.376a.142.142,0,0,1,.115.042.177.177,0,0,1,.042.115v.1a.129.129,0,0,1-.042.109.177.177,0,0,1-.115.042h-2.66Z" transform="translate(-145.713 -64.152)" fill="#202b46"/><path d="M249.341,69.055a.129.129,0,0,1-.109-.042.145.145,0,0,1-.042-.109V64.387a.142.142,0,0,1,.042-.115.137.137,0,0,1,.109-.042h2.69a.142.142,0,0,1,.115.042.177.177,0,0,1,.042.115v.1a.129.129,0,0,1-.042.109.177.177,0,0,1-.115.042h-2.406V66.4h2.256a.142.142,0,0,1,.115.042.177.177,0,0,1,.042.115v.1a.129.129,0,0,1-.042.109.177.177,0,0,1-.115.042h-2.256v1.827h2.461a.142.142,0,0,1,.115.042.15.15,0,0,1,.042.115v.1a.129.129,0,0,1-.042.109.142.142,0,0,1-.115.042h-2.744Z" transform="translate(-148.654 -64.152)" fill="#202b46"/><path d="M258.337,69.069a2.228,2.228,0,0,1-.947-.181,1.475,1.475,0,0,1-.6-.464,1.089,1.089,0,0,1-.223-.6.128.128,0,0,1,.042-.1.132.132,0,0,1,.1-.042h.139a.137.137,0,0,1,.109.042.128.128,0,0,1,.042.1.829.829,0,0,0,.175.38,1.155,1.155,0,0,0,.428.32,1.8,1.8,0,0,0,.73.127,1.578,1.578,0,0,0,.983-.247.793.793,0,0,0,.308-.657.626.626,0,0,0-.163-.446,1.392,1.392,0,0,0-.495-.3c-.223-.09-.5-.187-.85-.3a5.193,5.193,0,0,1-.808-.326,1.159,1.159,0,0,1-.464-.41,1.2,1.2,0,0,1-.151-.621,1.1,1.1,0,0,1,.187-.633,1.3,1.3,0,0,1,.543-.446,2.057,2.057,0,0,1,.862-.163,2.127,2.127,0,0,1,.712.109,1.362,1.362,0,0,1,.5.3,1.292,1.292,0,0,1,.3.392,1.066,1.066,0,0,1,.109.41.145.145,0,0,1-.036.09.129.129,0,0,1-.109.042h-.139a.357.357,0,0,1-.084-.03.142.142,0,0,1-.066-.109.8.8,0,0,0-.362-.567,1.4,1.4,0,0,0-.832-.223,1.546,1.546,0,0,0-.832.2.772.772,0,0,0-.181,1.08,1.1,1.1,0,0,0,.452.308c.205.084.47.187.8.3a6.753,6.753,0,0,1,.856.332,1.275,1.275,0,0,1,.5.4,1.06,1.06,0,0,1,.163.615,1.2,1.2,0,0,1-.211.712,1.306,1.306,0,0,1-.6.446,2.5,2.5,0,0,1-.923.157Z" transform="translate(-151.583 -64.1)" fill="#202b46"/></g></g></g></svg>